# xmcd
#
# Track frame offsets: 
#        150
#        18662
#        35305
#        50485
#        57765
#        75512
#        92875
#        109285
#        113012
#        135062
#        151795
#        154312
#        170647
#        204890
#        213212
#
# Disc length: 3083 seconds
#
# Revision: 5
# Processed by: cddbd v1.5.2PL0 Copyright (c) Steve Scherf et al.
# Submitted via: ExactAudioCopy v0.99pb5
#
DISCID=b60c090f
DTITLE=Paul Weller - Wild Wood
DYEAR=1993
DGENRE=Rock
TTITLE0=Sunflower
TTITLE1=Can You Heal Us (Holy Man)
TTITLE2=Wild Wood
TTITLE3=Instrumental (pt 1)
TTITLE4=All the Pictures on the Wall
TTITLE5=Has My Fire Really Gone Out?
TTITLE6=Country
TTITLE7=Instrumental Two
TTITLE8=5th Season
TTITLE9=The Weaver
TTITLE10=Instrumental (pt 2)
TTITLE11=Foot of the Mountain
TTITLE12=Shadow of the Sun
TTITLE13=Holy Man (Reprise)
TTITLE14=Moon on Your Pyjamas
EXTD=
EXTT0=
EXTT1=
EXTT2=
EXTT3=
EXTT4=
EXTT5=
EXTT6=
EXTT7=
EXTT8=
EXTT9=
EXTT10=
EXTT11=
EXTT12=
EXTT13=
EXTT14=
PLAYORDER=
